<svg xmlns="http://www.w3.org/2000/svg" viewBox="0 0 32 32" id="Love">
  <path fill="#595959" d="M16,27.75A1.48,1.48,0,0,1,15,27.32L4.76,17.24a7.55,7.55,0,0,1,0-10.77,7.74,7.74,0,0,1,10.84,0l.4.4.4-.4a7.74,7.74,0,0,1,10.84,0h0a7.55,7.55,0,0,1,0,10.77L17.05,27.32A1.48,1.48,0,0,1,16,27.75ZM10.18,7.25A4.66,4.66,0,0,0,6.87,8.61a4.54,4.54,0,0,0,0,6.5l9.13,9,9.13-9a4.54,4.54,0,0,0,0-6.5h0a4.71,4.71,0,0,0-6.62,0L17.05,10A1.48,1.48,0,0,1,15,10L13.49,8.61A4.66,4.66,0,0,0,10.18,7.25Z" class="color3939aa svgShape"></path>
</svg>
